PathFileType	4	(X/Y/Z)	5_coords_data.trc
DataRate	CameraRate	NumFrames	NumMarkers	Units	OrigDataRate	OrigDataStartFrame	OrigNumFrames
30.0	30.0	8	21	m	30.0	32	63
Frame#	Time	THUMB_TIP	THUMB_IP	THUMB_MCP	THUMB_CMC	INDEX_TIP	INDEX_DIP	INDEX_PIP	INDEX_MCP	MIDDLE_TIP	MIDDLE_DIP	MIDDLE_PIP	MIDDLE_MCP	RING_TIP	RING_DIP	RING_PIP	RING_MCP	PINKY_TIP	PINKY_DIP	PINKY_PIP	PINKY_MCP	WRIST
X1	Y1	Z1	X2	Y2	Z2	X3	Y3	Z3	X4	Y4	Z4	X5	Y5	Z5	X6	Y6	Z6	X7	Y7	Z7	X8	Y8	Z8	X9	Y9	Z9	X10	Y10	Z10	X11	Y11	Z11	X12	Y12	Z12	X13	Y13	Z13	X14	Y14	Z14	X15	Y15	Z15	X16	Y16	Z16	X17	Y17	Z17	X18	Y18	Z18	X19	Y19	Z19	X20	Y20	Z20	X21	Y21	Z21
30	1.0333333333333288	0.4897964653945398	-0.018769510169576287	-0.17147079937031892	0.49270317522712503	-0.01970432793011334	-0.14869631466256455	0.4787829472484624	-0.026113161789802164	-0.1216043582625376	0.47541833218601925	-0.02701057058662437	-0.07713229936109967	0.4965306730552199	-0.021020704075718877	-0.09546140604415161	0.5143620959289954	-0.020171299296752654	-0.0985140884413348	0.5316886649666639	-0.005474427974432761	-0.10927521346235738	0.49907564141178984	0.021533825410661622	-0.11381184632118327	0.4993192310358562	-0.016462797165870846	-0.08299333842361288	0.5173745287786055	-0.015093785972056462	-0.08335670018808947	0.5378999455306136	0.0036510207502209457	-0.0921173530234004	0.5034846147267829	0.03187522999240344	-0.09600668963989328	0.5033353092059533	-0.00512815160640645	-0.06829627606815768	0.5213504432122634	-0.004746894646706301	-0.06885268407076933	0.54009939978309	0.010954017719959075	-0.07355778315150692	0.5092172935055334	0.036807016288327166	-0.07711289368223162	0.5047131026020966	-0.008504169524853777	-0.051426080626306506	0.5216332350489774	-0.01108627593134126	-0.0516306398734309	0.5369279403883017	0.0029956313048982164	-0.05456046856692029	0.5133351398335849	0.030259960674229536	-0.05551940392760493	0.462283081001861	-0.023011742144276925	-0.051989820119430985
31	1.0666666666666622	0.4903128702301588	-0.018514287360010373	-0.17130679961175443	0.4929883720969662	-0.019536022930255692	-0.14850772624933012	0.47878764563800036	-0.02609749218139845	-0.12159849940603465	0.47543508505591314	-0.026997686884893235	-0.07712558644725445	0.49699453176727704	-0.021682339387711247	-0.0951857180231122	0.5147336146825883	-0.020394458476277966	-0.09860131461546393	0.5316633053657712	-0.005372394925586721	-0.10954357274853418	0.4989715897930376	0.021579865955968836	-0.113840485626876	0.4994498477258781	-0.016771408476872862	-0.08261766017750534	0.5174945880898015	-0.015377597574300683	-0.08328447077015068	0.5376835706862775	0.0036268166743037566	-0.09226482548400393	0.5033291357848925	0.031935686660200746	-0.09607646603999534	0.5031397906639029	-0.005336623857388201	-0.06823589344202007	0.5211506493315045	-0.004950296938716403	-0.06891392114616968	0.5397365486409218	0.010922771201412274	-0.0736878119785027	0.5089906130910918	0.036941386167355206	-0.07721484421817912	0.504595685752368	-0.00898841428368824	-0.051466923523600897	0.5215477465309517	-0.011340493232453674	-0.05177572763299179	0.5366245788771639	0.002966119283063451	-0.05474591007436792	0.5132020479410353	0.03037903323556357	-0.055640697299874045	0.4622830810018608	-0.023011742144276925	-0.051989820119430985
32	1.0999999999999952	0.49099744853861205	-0.01827894799075669	-0.1710963244081381	0.49337879353932035	-0.01938538087523667	-0.14826859998673023	0.47882043142750963	-0.026105954263395015	-0.12159074426413183	0.4754335266639008	-0.027031846435066953	-0.07712096126703727	0.4985346187860311	-0.023076231204335995	-0.09505957567721988	0.5160133688933072	-0.020578747731393676	-0.09909143269226668	0.5320014100525656	-0.004712159141226024	-0.11025582875296877	0.4987384610183273	0.021623971716981827	-0.11394642856397758	0.5006178419068466	-0.018016599837450298	-0.08233411078827267	0.5185492028027253	-0.015790879777026645	-0.08356393461076897	0.5377075426934945	0.0041073017571851	-0.09286070470910487	0.503002362763631	0.0320396227098243	-0.09624948815372848	0.5038055091964173	-0.0063866382079071915	-0.06822276207526057	0.5217759254270505	-0.005290298206302557	-0.06915129807277447	0.5396212967089317	0.011368178976673082	-0.07407246061389162	0.5086406664343394	0.03713297978205776	-0.07740358973895706	0.5051772245539897	-0.010141521885517646	-0.05172835576230453	0.5222230373434366	-0.011638932137462032	-0.05217336012688377	0.5365610412608631	0.0034056013332848245	-0.05515592199739676	0.5129177913619055	0.030634339271493283	-0.05584586076846029	0.4622830810018609	-0.023011742144276925	-0.051989820119430985
33	1.1333333333333284	0.4920145783369618	-0.01799383580854086	-0.17077222290155833	0.49399759607896265	-0.019212780304758925	-0.14791217445563307	0.47892940263945205	-0.02609295847183124	-0.12156008355455228	0.4754531679711066	-0.027103846823793187	-0.07709904558566918	0.5015573843334361	-0.025046665677343927	-0.09538264102642485	0.5185023759211432	-0.02073494899001893	-0.10010242484570894	0.5329547215815454	-0.00355757105795107	-0.1114195457380189	0.4986283887604607	0.02150587165525608	-0.11409588809614567	0.5033433361171507	-0.020055885062447154	-0.08251752217151095	0.5209751788954551	-0.016334984397091468	-0.08432667072254672	0.5383466772466942	0.005031486803583118	-0.09387206246221043	0.5028340397927747	0.03202183599324282	-0.0964257955505962	0.5059371365788117	-0.008076281677681485	-0.06848398550817082	0.5237569388131671	-0.0056271153679743335	-0.06969073018533259	0.5402375756577535	0.012344037216289738	-0.07475099331979146	0.5084629986647432	0.03718194165640254	-0.07761029287371976	0.5071788115276106	-0.011830960158653037	-0.052376336071385934	0.524287098624691	-0.011901983768759505	-0.0529253973163088	0.5373357721459426	0.004284259437020488	-0.05584937905686946	0.512804626623769	0.030723905787618522	-0.056076207682163065	0.462283081001861	-0.023011742144276925	-0.051989820119430985
34	1.1666666666666616	0.49347998027911877	-0.017592531033133296	-0.17029485112573609	0.494941509546007	-0.01898969238286341	-0.14740572985896722	0.47920302386449054	-0.02604160747620654	-0.12149452452287793	0.47550432003081455	-0.02720637184056085	-0.07705520731473123	0.5063553180559003	-0.02739090302399605	-0.09621345355499403	0.5223484984260098	-0.020784601246773837	-0.101559008575515	0.5345431447168285	-0.0019337145620571539	-0.11287026429898749	0.4988156817231375	0.021205313637469136	-0.11420062365494016	0.5080155633477982	-0.022609972520497013	-0.0831282622179288	0.5250206371490831	-0.016848704137836457	-0.08550213071382544	0.5397184598330121	0.006397868601047518	-0.09514476594738885	0.5030028574543067	0.03181861225532756	-0.09652253771084456	0.5098364903047804	-0.010328519349637966	-0.06901367889482854	0.5272538398030563	-0.005911836000705106	-0.07047273497674053	0.5416436943002396	0.01375849404412699	-0.07559036943782448	0.5086287155171977	0.036998738466222925	-0.07774049714485393	0.5108459466857238	-0.013925711003524688	-0.05339504846533097	0.5278486699936175	-0.012024170347589291	-0.05393499591558512	0.5389733499069959	0.0055668803417053825	-0.05669333807556774	0.5129691963164855	0.030556087398511678	-0.05623839004204337	0.4622830810018609	-0.023011742144276925	-0.051989820119430985
35	1.1999999999999948	0.49533452996378435	-0.017073377214906427	-0.16965407234619828	0.4961683736211463	-0.018722760986677356	-0.14675026834056423	0.4796220263010287	-0.025927369653617194	-0.12139022093685672	0.47559009634618243	-0.027339583116288924	-0.07698707697187311	0.5134003200486519	-0.029866663795368065	-0.09752702498333433	0.5277308149179689	-0.02048500036577372	-0.10341101241485498	0.5367281344722971	0.00021247730718954028	-0.11448677387014503	0.4993991177770488	0.020708863712405767	-0.1142061479733594	0.5150918633855986	-0.02548417496730848	-0.08404930890092017	0.5308818922656774	-0.017111121433488585	-0.08697624629110613	0.5417699296158683	0.008187208071822494	-0.09650802036005879	0.5035996373903334	0.03140736670927424	-0.09647727513523863	0.515946919712589	-0.01288221186238192	-0.06975774942848793	0.5324835839561235	-0.005899166207377071	-0.07142382538015728	0.5438304001294804	0.015684096705855355	-0.07648272879357908	0.5092186585301097	0.03654574247545539	-0.07772366120194495	0.5165383903988746	-0.016352502960451987	-0.05470100487648018	0.5330325762454339	-0.011793155521205856	-0.0550936678202453	0.541418872352529	0.007297500204449969	-0.05754905385274811	0.513477187429963	0.030068295980586468	-0.0562697749896614	0.4622830810018608	-0.023011742144276925	-0.051989820119430985
36	1.233333333333328	0.4975049460493456	-0.016593272022064176	-0.1688574543729041	0.4976398819397295	-0.01853444913606772	-0.14596174246613963	0.4801947012820261	-0.02582885271075308	-0.12123771875822131	0.4757197358672357	-0.027514721159399014	-0.07688659101483364	0.5231276625990694	-0.031902476994012274	-0.0994849746318348	0.5347666037730414	-0.019503842970732266	-0.10571465541864757	0.539423271442895	0.0028687792901954667	-0.11619277797864784	0.5004774323328364	0.019967094752686654	-0.11407020445611346	0.5251839137399589	-0.028113356657490485	-0.08529302315636732	0.5387947863620984	-0.01667549791936407	-0.08874549096223526	0.5444824061143299	0.010411852809890099	-0.09787434423219213	0.5047190484803407	0.030719812314960127	-0.09625876649902579	0.5247067559810569	-0.015355898812351887	-0.07063622089385861	0.5395337888906562	-0.005263934962136729	-0.0724559353614637	0.54669487761652	0.018090108584290387	-0.07730231930125783	0.5103234278688655	0.03574773212315019	-0.07751867136098625	0.5246660711700463	-0.01877794213047823	-0.05607649422972186	0.5398447016337802	-0.010866156254951576	-0.056189726315382243	0.5445108278457128	0.009500822459773128	-0.05824531946779973	0.5143730065263585	0.02920110609480364	-0.05612541337977933	0.4622830810018608	-0.023011742144276925	-0.051989820119430985
37	1.2666666666666608	0.4999250513498209	-0.016327513891510104	-0.16792805054501114	0.49932308504710965	-0.018549373981215922	-0.14506539596790283	0.48093830653072467	-0.025820147238645008	-0.12102468518093709	0.4759051365769831	-0.02774302056960054	-0.07674308902215063	0.5358321276637775	-0.03258663676698059	-0.10225010045093973	0.543315794597314	-0.017332497331881358	-0.10851954694344929	0.5423645902068924	0.005985601825330034	-0.11786680830184183	0.5020088915724282	0.018965076829011163	-0.11379410522487662	0.5388291694497858	-0.029544065259198393	-0.08691595082905121	0.5486302959711955	-0.014832513580784412	-0.09085399172836585	0.5476659572531584	0.013088509865775366	-0.09915435621033623	0.5063321061345216	0.02972868621959346	-0.09587331923763812	0.5364961555354899	-0.017036023146374202	-0.0717090374222894	0.54822884881202	-0.0034757843808059796	-0.07357017500442775	0.549927807263914	0.020972874436106737	-0.07799245962133568	0.511874789330519	0.03460985477138967	-0.077143090740441	0.5356148447098734	-0.020412313962422268	-0.057453253582575886	0.5480111208591651	-0.008612406728057187	-0.05714580132468983	0.5479168355156222	0.012324699532865191	-0.05870807873054465	0.515564201905574	0.028007497012008997	-0.05583746682327731	0.4622830810018609	-0.023011742144276925	-0.051989820119430985
